<svg width="64" height="64" viewBox="0 0 64 64" fill="none" xmlns="http://www.w3.org/2000/svg">
<g clip-path="url(#clip0_16225_4888)">
<path d="M52.4552 50.4865C52.4552 50.4865 51.9391 51.0291 51.8746 51.0974C51.9429 51.162 53.1117 52.2738 53.1117 52.2738L52.4514 52.9645C52.4514 52.9645 51.2826 51.8526 51.2143 51.7881C51.1535 51.8526 50.6564 52.3763 50.5957 52.4408C50.664 52.5053 51.829 53.6172 51.829 53.6172C51.829 53.6172 51.0207 54.4673 50.9524 54.5356C51.0131 54.5963 51.4685 55.0251 51.5292 55.0858C51.5975 55.0137 55.7377 50.6648 55.8098 50.5927C55.7453 50.532 55.2937 50.1032 55.233 50.0425C55.1647 50.1146 53.7302 51.6211 53.7302 51.6211C53.7302 51.6211 52.5614 50.5092 52.4931 50.4447C52.4741 50.4675 52.4514 50.4865 52.4514 50.4865H52.4552Z" fill="#B1B7CC"/>
<path d="M54.2051 49.8301C54.133 49.7618 51.7308 47.4735 51.6587 47.4014C51.6398 47.4241 51.617 47.4431 51.617 47.4431C51.617 47.4431 48.0233 51.219 47.9512 51.2911C48.0119 51.3518 48.4635 51.7806 48.528 51.8375C48.6001 51.7654 51.617 48.5967 51.617 48.5967C51.617 48.5967 53.5182 50.4069 53.5903 50.4752L54.2089 49.8263L54.2051 49.8301Z" fill="#B1B7CC"/>
<path d="M10.189 51.7201C9.55909 52.3083 9.58186 53.3557 10.2346 54.0577C10.8911 54.7598 11.9347 54.8508 12.5646 54.2626C13.1946 53.6744 13.1718 52.6233 12.5153 51.925C11.8588 51.223 10.8152 51.1319 10.1852 51.7239L10.189 51.7201ZM10.7659 52.3235C11.0998 52.0123 11.6576 52.0578 12.003 52.4259C12.3483 52.7978 12.3597 53.3519 12.0257 53.6668C11.6918 53.9818 11.1377 53.9363 10.7848 53.5644C10.4395 53.1925 10.4319 52.6346 10.7659 52.3235Z" fill="#B1B7CC"/>
<path d="M15.9498 51.0518C15.9498 51.0518 15.4565 50.5243 15.3958 50.4636C15.3313 50.5243 14.6785 51.1353 14.6785 51.1353C14.6785 51.1353 14.041 50.4522 13.9803 50.3877C13.9196 50.4446 13.4832 50.8545 13.4224 50.9114C13.4832 50.9759 14.1207 51.659 14.1207 51.659C14.1207 51.659 13.2441 52.4787 13.1758 52.5432C13.2327 52.6039 13.7071 53.1124 13.7678 53.1731C13.8399 53.1086 15.9195 51.158 15.9916 51.0935C15.9726 51.0708 15.9536 51.0518 15.9536 51.0518H15.9498Z" fill="#B1B7CC"/>
<path d="M13.3042 48.2021C13.3042 48.2021 10.128 48.335 10.0293 48.3388C10.0369 48.426 10.0824 49.1205 10.09 49.2078C10.1849 49.2002 12.4352 49.075 12.4352 49.075C12.4352 49.075 12.162 51.1887 12.1468 51.2836C12.2303 51.2949 12.921 51.3898 13.0082 51.4012C13.0196 51.3025 13.3612 48.316 13.3726 48.2059C13.3384 48.2059 13.3042 48.2059 13.3042 48.2059V48.2021Z" fill="#B1B7CC"/>
<path d="M39.3225 61.617L40.1802 61.469L39.2049 55.8071C39.1783 55.8147 39.148 55.8185 39.148 55.8185C39.148 55.8185 38.4345 55.9399 38.3472 55.9551C38.3624 56.05 38.647 57.697 38.647 57.697L38.1385 57.7842C38.1385 57.7842 37.8539 56.1411 37.8387 56.0424L36.9697 56.1904L37.5883 59.7841C36.9014 59.9018 34.8636 60.2509 34.8636 60.2509L34.3854 57.4844C34.3854 57.4844 36.3018 57.1543 36.3967 57.1391L36.2753 56.4219C36.2753 56.4219 36.2715 56.4219 36.2639 56.4219L33.4102 56.9114C33.5847 57.9322 34.1274 61.0744 34.1426 61.1541L37.7173 60.5393L37.9412 61.8447L38.8102 61.6967C38.795 61.6019 38.2638 58.5318 38.2638 58.5318L38.7685 58.4445C38.7685 58.4445 39.296 61.5108 39.3111 61.6056L39.3225 61.617Z" fill="#B1B7CC"/>
<path d="M21.8199 57.2564C21.8199 57.2564 21.7251 57.2032 21.5543 57.1159L22.6206 55.1123C22.5941 55.0971 22.5675 55.0857 22.5675 55.0857C22.5675 55.0857 18.0782 52.695 17.9909 52.6494L17.6228 53.3363C17.7101 53.3818 21.4746 55.3855 21.4746 55.3855C21.4746 55.3855 21.0458 56.1862 20.7763 56.6985L16.5792 54.4633L16.2149 55.1502C16.2984 55.1958 17.8657 56.0268 17.8657 56.0268C17.8657 56.0268 17.4255 56.8503 17.3838 56.93L18.1693 57.3512C18.211 57.2715 18.6512 56.448 18.6512 56.448L19.3533 56.8199C19.3533 56.8199 18.9169 57.6434 18.8713 57.7231L19.6607 58.1443C19.7024 58.0647 20.1426 57.2412 20.1426 57.2412C20.1426 57.2412 21.4253 57.9242 21.5087 57.9698L21.8731 57.2829C21.8503 57.2715 21.8237 57.2564 21.8237 57.2564H21.8199ZM17.0878 56.2279L16.3136 55.8143L15.3535 57.6207L20.0743 60.1366L20.4424 59.4498C20.3551 59.4042 16.4958 57.3474 16.4958 57.3474C16.4958 57.3474 17.046 56.3114 17.0916 56.2279H17.0878Z" fill="#B1B7CC"/>
<path d="M25.5509 59.7155C25.5206 59.7117 25.494 59.7079 25.494 59.7079C25.494 59.7079 24.7692 59.594 24.6819 59.5827L24.3631 61.6053L29.6873 62.4402L29.8087 61.6698C29.7139 61.6546 25.3536 60.9716 25.3536 60.9716C25.3536 60.9716 25.5358 59.8141 25.5509 59.7193V59.7155ZM30.378 57.7573C30.378 57.7573 30.5184 56.8542 30.5336 56.7631C30.507 56.7631 30.4804 56.7555 30.4804 56.7555C30.4804 56.7555 29.7594 56.6417 29.6683 56.6265L29.3002 58.9717L28.4198 58.8351L28.769 56.5923C28.7424 56.5885 28.712 56.5847 28.712 56.5847C28.712 56.5847 25.1714 56.0307 25.0728 56.0117L24.9513 56.7821C25.0462 56.7973 27.7785 57.2261 27.7785 57.2261C27.7785 57.2261 27.6191 58.2393 27.547 58.6985C27.0537 58.6226 26.6742 58.5619 26.6742 58.5619C26.6742 58.5619 26.7918 57.8294 26.8032 57.7422C26.7767 57.7422 26.7463 57.7346 26.7463 57.7346C26.7463 57.7346 26.0063 57.6169 25.919 57.6056C25.9039 57.6928 25.79 58.4252 25.79 58.4252C25.79 58.4252 24.5377 58.2279 24.4466 58.2165L24.3252 58.9869L29.1712 59.7458L29.0308 60.6452L29.896 60.7818C29.9112 60.687 30.2489 58.5201 30.2489 58.5201C30.2489 58.5201 31.0497 58.6453 31.1407 58.6605L31.2584 57.894C31.1711 57.8788 30.3704 57.7535 30.3704 57.7535L30.378 57.7573Z" fill="#B1B7CC"/>
<path d="M46.0885 52.4068C46.0885 52.4068 45.4586 52.7559 45.3789 52.8015C45.4282 52.885 46.9727 55.6742 47.0221 55.7577C47.098 55.7159 47.7051 55.3782 47.781 55.3364C47.7355 55.253 46.9917 53.9096 46.9917 53.9096C46.9917 53.9096 47.6824 53.5263 47.7621 53.4808C47.7241 53.4087 47.4319 52.885 47.394 52.8129C47.3143 52.8546 46.6236 53.2379 46.6236 53.2379C46.6236 53.2379 46.191 52.4562 46.1455 52.3765C46.1227 52.3916 46.0961 52.4068 46.0961 52.4068H46.0885Z" fill="#B1B7CC"/>
<path d="M47.9139 55.716C47.9139 55.716 43.269 58.2927 43.1855 58.3383C43.2273 58.4141 43.5195 58.9416 43.5612 59.0137C43.6447 58.9644 47.5838 56.7824 47.5838 56.7824C47.5838 56.7824 48.1113 57.7311 48.1568 57.8146C48.2327 57.7728 48.8399 57.4351 48.9158 57.3933C48.8702 57.3099 48.0164 55.7691 47.967 55.6895C47.9405 55.7008 47.9177 55.716 47.9177 55.716H47.9139Z" fill="#B1B7CC"/>
<path d="M44.6458 53.3252L43.2379 54.1069C43.2379 54.1069 43.2379 54.1069 43.2341 54.1069L42.976 53.644L42.2057 54.069L42.4637 54.5358L41.0293 55.3289L41.3898 55.974L41.9059 55.6894C41.8831 55.993 41.9401 56.3041 42.0994 56.5888C42.5472 57.3933 43.6022 57.6665 44.4522 57.1921C45.3023 56.7216 45.6324 55.6818 45.1846 54.8773C45.0253 54.5927 44.7938 54.3802 44.5243 54.2397L45.0025 53.9703L44.6458 53.329V53.3252ZM44.0576 56.437C43.6477 56.6647 43.143 56.5318 42.9305 56.1448C42.7142 55.7577 42.8736 55.2644 43.2796 55.0367C43.6857 54.809 44.1904 54.9418 44.4067 55.3289C44.6192 55.7159 44.4636 56.2093 44.0576 56.437Z" fill="#B1B7CC"/>
<path d="M61.806 34.3133L61.1419 33.8958C61.8402 33.5771 61.8629 32.8788 61.8629 32.8788C61.8895 32.3323 61.5707 31.9415 61.104 31.9453C60.4892 31.9491 60.2615 32.4955 60.0035 33.1255C59.7226 33.8009 59.29 34.5144 58.4286 34.5637C57.385 34.6282 56.6792 33.7061 56.7323 32.4386C56.7854 31.2053 57.6355 30.6133 57.6355 30.6133L58.4172 30.9738C58.4172 30.9738 57.3167 31.3381 57.2446 32.6663C57.2142 33.2545 57.6431 33.7099 58.2199 33.7061C58.8346 33.7023 59.0547 33.1748 59.309 32.5638C59.5936 31.877 59.9124 31.1028 60.8952 31.0952C61.8553 31.0876 62.4359 31.8466 62.379 33.0306C62.379 33.0306 62.3638 33.7858 61.8022 34.3208L61.806 34.3133Z" fill="#B1B7CC"/>
<path d="M4.1928 42.9539L4.97074 43.0374C4.48121 43.6331 4.76962 44.2707 4.76962 44.2707C4.98592 44.7716 5.4413 44.9879 5.85874 44.7792C6.41278 44.506 6.37483 43.9178 6.33309 43.2385C6.29135 42.5061 6.36724 41.6788 7.11862 41.2538C8.02939 40.7415 9.06538 41.2614 9.57389 42.4226C10.0672 43.5535 9.5625 44.4566 9.5625 44.4566L8.69728 44.4756C8.69728 44.4756 9.53214 43.6673 9.01225 42.4416C8.78456 41.8989 8.19636 41.6788 7.68026 41.9331C7.12621 42.2063 7.16037 42.7755 7.20211 43.4358C7.24765 44.1758 7.29698 45.0145 6.42037 45.4509C5.56274 45.8759 4.7051 45.4509 4.24213 44.3618C4.24213 44.3618 3.92337 43.6749 4.1966 42.9501L4.1928 42.9539Z" fill="#B1B7CC"/>
<path d="M3.34702 23.4598L3.2901 23.513C3.19143 23.6154 2.62221 24.2074 2.37554 25.3876C1.99985 27.194 2.84231 28.5336 4.50066 28.8789C6.19695 29.2318 7.43027 28.3893 7.79837 26.621C7.94258 25.9303 7.96914 25.2207 7.87806 24.5072L7.87047 24.4389L5.80608 24.0101L5.63152 24.8526L7.37335 25.2093C7.47202 25.6153 7.43407 26.0328 7.37335 26.3174C7.08874 27.6835 6.12485 28.2679 4.65245 27.9605C3.27872 27.6759 2.57667 26.769 2.83472 25.5129C2.96754 24.8791 3.38118 24.2606 3.89348 23.9684L3.93143 23.9456L3.34323 23.4561L3.34702 23.4598Z" fill="#B1B7CC"/>
<path d="M8.55762 12.7055L8.07567 13.3923L9.29761 15.9425L6.47805 15.6654L5.86328 16.5382L9.53289 16.747C9.57843 16.7773 11.3696 18.0334 11.3696 18.0334L11.8629 17.3314C11.8629 17.3314 10.011 16.0335 9.9693 16.007L8.55382 12.7017L8.55762 12.7055Z" fill="#B1B7CC"/>
<path d="M58.7514 46.3578L59.0891 45.5912L57.3928 43.3295L60.2124 43.0524L60.645 42.0734L57.0058 42.5857C56.9564 42.5629 54.9528 41.6787 54.9528 41.6787L54.6074 42.4642C54.6074 42.4642 56.6794 43.375 56.7212 43.394L58.7552 46.3578H58.7514Z" fill="#B1B7CC"/>
<path d="M6.86809 20.2038L5.72964 16.8833L5.34257 17.665L6.41651 20.7882C6.2723 20.7161 4.31796 19.756 4.31796 19.756L3.93848 20.5263L8.75793 22.8943L9.13741 22.124L6.80358 20.9779L10.1013 20.1696L10.5794 19.1906L6.86809 20.2076V20.2038Z" fill="#B1B7CC"/>
<path d="M22.9401 5.7571L24.5263 2.62256L23.6953 2.89199L22.2077 5.83679C22.1546 5.6812 21.4867 3.60922 21.4867 3.60922L20.667 3.87486L22.3291 8.98271L23.145 8.71707L22.3405 6.24284L25.2208 8.04159L26.2568 7.70385L22.9401 5.7533V5.7571Z" fill="#B1B7CC"/>
<path d="M27.4214 7.4494L28.0627 7.38489L29.0721 3.14226L30.8064 7.11166L31.5426 7.03956L32.7911 1.51807L32.0511 1.59017L31.0416 5.95803L29.2543 1.87099L28.7647 1.92032L27.7667 6.2768L26.078 2.18975L25.1748 2.27703L27.4214 7.4494Z" fill="#B1B7CC"/>
<path d="M35.759 1.91663L35.3795 1.87109L32.4385 6.99413L33.1709 7.08521L34.2524 5.16122L35.8994 5.35855L36.4686 7.47987L37.4704 7.6013L35.759 1.91284V1.91663ZM35.3339 3.09303C35.425 3.408 35.702 4.62235 35.7666 4.83486L34.4573 4.67548L35.3339 3.09303Z" fill="#B1B7CC"/>
<path d="M56.8066 14.6855L52.3633 17.6938L52.842 18.4009L57.2853 15.3925L56.8066 14.6855Z" fill="#B1B7CC"/>
<path d="M56.6371 35.5051L56.502 36.3481L61.8002 37.1977L61.9354 36.3547L56.6371 35.5051Z" fill="#B1B7CC"/>
<path d="M48.7789 10.4513C48.0313 11.5442 47.242 11.7225 46.3995 11.1457C45.4508 10.4968 45.4167 9.84028 46.2098 8.68285L47.9023 6.20862L47.2003 5.73047L45.466 8.26542C45.1017 8.81568 44.7602 9.44182 44.912 10.0832C45.0448 10.641 45.4243 11.1229 46.0466 11.548C47.2344 12.3639 48.3463 12.1589 49.1774 10.9484L50.9799 8.31476L50.4752 7.96942L48.7789 10.4513Z" fill="#B1B7CC"/>
<path d="M14.0935 11.3806C15.0232 12.3255 15.046 13.1338 14.3173 13.8511C13.4977 14.6556 12.8487 14.5607 11.8659 13.5589L9.76733 11.4224L9.16016 12.0182L11.3118 14.2078C11.7824 14.6746 12.3288 15.1299 12.9892 15.1034C13.5584 15.0806 14.1086 14.8036 14.6475 14.2761C15.6759 13.2667 15.6911 12.1358 14.6627 11.0884L12.4237 8.81152L11.9873 9.24034L14.0935 11.3844V11.3806Z" fill="#B1B7CC"/>
<path d="M5.10736 36.7076C6.3976 36.4002 7.10345 36.7987 7.33873 37.7891C7.60436 38.9086 7.19073 39.4133 5.82838 39.7397L2.91394 40.4341L3.11127 41.2614L6.09781 40.548C6.73914 40.3848 7.41083 40.1533 7.7258 39.5727C8.00282 39.0718 8.07492 38.4532 7.90036 37.7208C7.56642 36.3205 6.57976 35.7285 5.1529 36.0701L2.04492 36.8101L2.18533 37.4059L5.10736 36.7076Z" fill="#B1B7CC"/>
<path d="M54.0537 20.4126L54.2738 20.8452L60.0799 20.3899L59.7232 19.6992L55.1542 20.1508L58.1749 16.6937L57.7347 15.8398L54.0537 20.4126Z" fill="#B1B7CC"/>
<path d="M56.1216 23.7026C56.281 23.6533 57.8369 23.1599 57.9925 23.1068L58.5579 24.8828L59.0778 24.7158L58.5162 22.9398C58.668 22.8905 60.0569 22.4503 60.2087 22.4048L60.8197 24.3401L61.2599 24.1997L60.3908 21.4561L55.2754 23.0765L56.1596 25.8657L56.7554 25.6759L56.1292 23.695L56.1216 23.7026Z" fill="#B1B7CC"/>
<path d="M61.6926 38.1913L61.2638 38.0698L60.8122 39.675C60.6376 39.6257 56.0762 38.3468 56.0762 38.3468L55.8447 39.1665L60.5807 40.4947L60.1557 42.0316L60.5883 42.1493L61.6964 38.1913H61.6926Z" fill="#B1B7CC"/>
<path d="M56.3916 26.7082L56.4979 27.5544L59.0859 27.2091L56.8014 29.8389L56.9229 30.7421L59.2074 28.1274C59.3592 29.0003 60.0688 29.6909 60.8392 29.5885C61.7196 29.4708 62.0952 28.8636 61.9397 27.6797L61.7158 25.9985L56.3916 26.7044V26.7082ZM59.5907 27.1446C59.7462 27.1256 61.2111 26.9283 61.3666 26.9093L61.4729 27.7176C61.5602 28.3855 61.2073 28.7232 60.7253 28.765C60.2206 28.8105 59.807 28.6018 59.6855 27.8466L59.5907 27.1446Z" fill="#B1B7CC"/>
<path d="M17.8323 5.17616L17.3124 5.50631L19.3616 8.72813C17.4756 8.24239 14.1855 7.49101 14.1855 7.49101L13.8174 7.7225L16.6939 12.2535L17.2138 11.9234C17.2138 11.9234 16.0184 10.0373 15.0583 8.5308L20.4014 9.90074L20.7126 9.7034L17.8323 5.17236V5.17616Z" fill="#B1B7CC"/>
<path d="M1.69618 30.1881L1.70756 30.8028L5.52517 30.7231C4.13247 32.0855 1.78725 34.5104 1.78725 34.5104L1.79484 34.943L7.16075 34.8292L7.14557 34.2144C7.14557 34.2144 4.9142 34.2637 3.12683 34.3017L7.06588 30.4423L7.05829 30.0742L1.69238 30.1919L1.69618 30.1881Z" fill="#B1B7CC"/>
<path d="M43.8417 4.06432L43.2573 3.86699L42.0392 7.48727C41.2309 5.71508 39.7433 2.6868 39.7433 2.6868L39.3296 2.54639L37.6182 7.63527L38.1988 7.8326C38.1988 7.8326 38.9122 5.71508 39.4814 4.02258L41.7773 9.03556L42.1264 9.1532L43.8341 4.06432H43.8417Z" fill="#B1B7CC"/>
<path d="M55.7388 13.1111L55.3213 12.6633L52.5245 15.2628C52.6612 13.3198 52.7978 9.94621 52.7978 9.94621L52.5018 9.62744L48.5703 13.2819L48.9877 13.7297C48.9877 13.7297 50.6233 12.2079 51.9325 10.9898L51.5606 16.4923L51.8111 16.7617L55.7388 13.1035V13.1111Z" fill="#B1B7CC"/>
<path d="M18.7277 46.8852C18.2078 46.4336 17.3198 45.595 16.5229 44.5704C12.8722 40.4871 8.69411 29.7629 15.6121 20.0253C18.4658 16.0104 22.5643 13.3047 26.6399 12.2042C36.1422 9.63885 43.4511 14.1206 46.7981 17.737C47.17 18.1393 47.1169 18.6554 46.8361 18.8907C46.4224 19.2398 46.0467 19.0577 45.2119 18.8186C43.9102 18.4429 42.787 18.3556 41.584 18.5112C38.791 18.8717 36.3775 21.4636 36.7152 25.0801C37.0264 28.3816 39.5765 30.7647 41.3639 32.3358C47.652 37.8573 45.5572 43.7886 45.0487 45.0903C43.3182 49.515 38.8707 52.6382 33.1025 52.6458C30.708 52.6458 27.2433 52.031 23.7596 49.83C23.6268 49.7693 23.4902 49.5909 23.6572 49.2949C23.9228 48.6233 25.0309 46.6613 25.5091 46.0921C27.2395 48.0882 30.1615 49.9666 33.4061 50.0805C37.8385 50.2361 40.6922 47.8339 41.7358 44.7905C42.9084 41.3713 41.6523 37.8839 38.3356 34.7455C35.4781 32.036 32.928 29.5314 32.7724 25.2319C32.5751 19.7217 37.3679 16.4468 41.8269 16.6593C41.9597 16.6669 35.6603 12.1321 27.581 14.8492C23.6268 16.1812 21.2626 18.5188 20.128 19.847C19.9572 20.0519 20.0673 20.2075 20.128 20.291C20.2532 20.4693 23.0045 24.2983 23.0045 24.2983L18.0484 23.1637C18.0484 23.1637 17.8435 23.1143 17.741 23.2851C16.17 26.0022 13.8589 33.8575 19.0502 41.0032C19.0502 41.0032 23.456 34.0055 32.2183 33.3984C32.8027 33.3604 32.7268 33.5691 32.3436 33.7057C24.5186 36.5936 21.4372 42.339 19.4449 46.7714C19.3235 47.0446 18.9971 47.1281 18.7315 46.8928L18.7277 46.8852Z" fill="#B1B7CC"/>
<path d="M26.7915 41.4812C26.7915 41.4812 27.2811 41.2611 27.4177 41.1852V44.5816H28.0362L28.0286 40.5894L27.93 40.5249L27.8996 40.5401C27.4518 40.764 26.9964 40.9727 26.6094 41.1321L26.7915 41.485V41.4812Z" fill="#B1B7CC"/>
<path d="M30.055 42.5821C30.5521 42.5821 30.795 42.8363 30.795 43.3638C30.795 43.9027 30.461 44.2518 29.9449 44.2518C29.5692 44.2518 29.315 44.0014 29.2239 43.8951L29.148 43.8078L29 44.3353L29.0455 44.3581C29.2581 44.4605 29.5313 44.563 29.9335 44.563C30.8101 44.563 31.4439 44.0279 31.4439 43.2917C31.4439 42.62 30.924 42.4265 30.609 42.3696C30.9543 42.2216 31.2655 41.9066 31.2617 41.4285C31.2617 40.8668 30.8177 40.5253 30.1119 40.5215C29.5123 40.5215 29.2049 40.9124 29.2049 40.9124L29.4668 41.3677L29.5123 41.2387C29.5844 41.0338 29.8045 40.8251 30.0891 40.8251C30.3434 40.8251 30.6356 40.992 30.6394 41.4626C30.6394 41.8307 30.5369 42.2671 30.0588 42.2671L29.74 42.2443V42.62C29.74 42.62 29.9184 42.5745 30.0588 42.5745L30.055 42.5821Z" fill="#B1B7CC"/>
<path d="M32.2829 43.766L32.4461 44.4111C32.4461 44.4111 32.7003 44.5591 33.0608 44.5554C34.0854 44.5516 34.7989 43.5915 34.7989 42.2139C34.7989 40.6808 33.8615 40.5138 33.4593 40.5176C32.6814 40.5176 32.1349 41.0451 32.1387 41.8003C32.1387 42.5365 32.5865 42.9919 33.3075 42.9919C33.6718 42.9919 33.9564 42.8477 34.1689 42.5782C34.1272 43.4359 33.7894 44.2176 33.0912 44.2252C32.5296 44.229 32.2867 43.766 32.2867 43.766H32.2829ZM33.3986 42.6541C32.9698 42.6541 32.761 42.3733 32.761 41.7965C32.761 41.2121 33.0381 40.8212 33.4555 40.8212C33.8691 40.8212 34.15 41.1514 34.15 41.6447C34.15 42.1456 33.8919 42.6503 33.3986 42.6503V42.6541Z" fill="#B1B7CC"/>
<path d="M37.2352 42.2555C37.5844 42.0999 37.8083 41.7849 37.8083 41.4093C37.8083 40.9956 37.5085 40.5137 36.6584 40.5137C36.0133 40.5137 35.5314 40.9311 35.5314 41.4776C35.5314 41.8874 35.8084 42.1758 36.1082 42.2859C35.611 42.4832 35.3302 42.8627 35.334 43.3788C35.334 44.0808 35.8691 44.5514 36.666 44.5514C37.4402 44.5514 37.998 44.0011 37.998 43.246C37.998 42.5477 37.4819 42.3238 37.239 42.2555H37.2352ZM36.1196 41.4852C36.1196 41.3296 36.1575 40.8173 36.666 40.8173C37.1669 40.8173 37.2201 41.284 37.2201 41.4814C37.2201 41.6369 37.1821 42.1492 36.666 42.1492C36.1613 42.1492 36.1196 41.6407 36.1196 41.4852ZM36.6622 44.244C36.241 44.244 35.9526 43.8873 35.9526 43.3522C35.9526 42.8171 36.2372 42.4604 36.6584 42.4566C37.0796 42.4566 37.3643 42.8133 37.3643 43.3484C37.3643 43.8911 37.091 44.244 36.6584 44.244H36.6622Z" fill="#B1B7CC"/>
</g>
<defs>
<clipPath id="clip0_16225_4888">
<rect width="64" height="64" fill="white"/>
</clipPath>
</defs>
</svg>
